<?xml version="1.0" encoding="utf-8"?><svg viewBox="0 0 512 512" xmlns="http://www.w3.org/2000/svg" xmlns:xlink="http://www.w3.org/1999/xlink"><style>:root>svg{display:none}:root>svg:target{display:block}</style><svg aria-hidden="true" data-prefix="fas" data-icon="check" viewBox="0 0 512 512" id="check"><path fill="#31a5e7" d="M173.898 439.404l-166.4-166.4c-9.997-9.997-9.997-26.206 0-36.204l36.203-36.204c9.997-9.998 26.207-9.998 36.204 0L192 312.69 432.095 72.596c9.997-9.997 26.207-9.997 36.204 0l36.203 36.204c9.997 9.997 9.997 26.206 0 36.204l-294.4 294.401c-9.998 9.997-26.207 9.997-36.204-.001z"/></svg><svg aria-hidden="true" data-prefix="fas" data-icon="quote-left" viewBox="0 0 448 512" id="quote-left"><path fill="#fff" d="M96 224c-11.28 0-21.95 2.3-32 5.9V224c0-35.3 28.7-64 64-64 17.67 0 32-14.33 32-32s-14.3-32-32-32C57.42 96 0 153.4 0 224v96c0 53.02 42.98 96 96 96s96-42.98 96-96-43-96-96-96zm256 0c-11.28 0-21.95 2.305-32 5.879V224c0-35.3 28.7-64 64-64 17.67 0 32-14.33 32-32s-14.33-32-32-32c-70.58 0-128 57.42-128 128v96c0 53.02 42.98 96 96 96s96-42.98 96-96-43-96-96-96z"/></svg><svg aria-hidden="true" data-prefix="fas" data-icon="quote-right" viewBox="0 0 448 512" id="quote-right"><path fill="#fff" d="M96 96c-53.02 0-96 42.1-96 96s42.98 96 96 96c11.28 0 21.95-2.305 32-5.879V288c0 35.3-28.7 64-64 64-17.67 0-32 14.33-32 32s14.33 32 32 32c70.58 0 128-57.42 128-128v-96c0-53.9-43-96-96-96zm352 96c0-53.02-42.98-96-96-96s-96 42.98-96 96 42.98 96 96 96c11.28 0 21.95-2.305 32-5.879V288c0 35.3-28.7 64-64 64-17.67 0-32 14.33-32 32s14.33 32 32 32c70.58 0 128-57.42 128-128v-96z"/></svg></svg>